<?xml version="1.0" standalone="no"?>
<svg xmlns:xlink="http://www.w3.org/1999/xlink" id="wave" style="transform:rotate(0deg); transition: 0.3s" viewBox="0 0 1440 490" version="1.1" xmlns="http://www.w3.org/2000/svg"><defs><linearGradient id="sw-gradient-0" x1="0" x2="0" y1="1" y2="0"><stop stop-color="rgba(243, 106, 62, 1)" offset="0%"/><stop stop-color="rgba(255, 179, 11, 1)" offset="100%"/></linearGradient></defs><path style="transform:translate(0, 0px); opacity:1" fill="#212529" d="M0,196L120,236.8C240,278,480,359,720,326.7C960,294,1200,147,1440,147C1680,147,1920,294,2160,302.2C2400,310,2640,180,2880,155.2C3120,131,3360,212,3600,220.5C3840,229,4080,163,4320,130.7C4560,98,4800,98,5040,81.7C5280,65,5520,33,5760,24.5C6000,16,6240,33,6480,98C6720,163,6960,278,7200,294C7440,310,7680,229,7920,220.5C8160,212,8400,278,8640,277.7C8880,278,9120,212,9360,163.3C9600,114,9840,82,10080,114.3C10320,147,10560,245,10800,236.8C11040,229,11280,114,11520,130.7C11760,147,12000,294,12240,334.8C12480,376,12720,310,12960,302.2C13200,294,13440,343,13680,334.8C13920,327,14160,261,14400,212.3C14640,163,14880,131,15120,114.3C15360,98,15600,98,15840,81.7C16080,65,16320,33,16560,49C16800,65,17040,131,17160,163.3L17280,196L17280,490L17160,490C17040,490,16800,490,16560,490C16320,490,16080,490,15840,490C15600,490,15360,490,15120,490C14880,490,14640,490,14400,490C14160,490,13920,490,13680,490C13440,490,13200,490,12960,490C12720,490,12480,490,12240,490C12000,490,11760,490,11520,490C11280,490,11040,490,10800,490C10560,490,10320,490,10080,490C9840,490,9600,490,9360,490C9120,490,8880,490,8640,490C8400,490,8160,490,7920,490C7680,490,7440,490,7200,490C6960,490,6720,490,6480,490C6240,490,6000,490,5760,490C5520,490,5280,490,5040,490C4800,490,4560,490,4320,490C4080,490,3840,490,3600,490C3360,490,3120,490,2880,490C2640,490,2400,490,2160,490C1920,490,1680,490,1440,490C1200,490,960,490,720,490C480,490,240,490,120,490L0,490Z"/></svg>