<?xml version="1.0" standalone="no"?>
<svg xmlns:xlink="http://www.w3.org/1999/xlink" id="wave" style="transform:rotate(0deg); transition: 0.3s" viewBox="0 0 1440 490" version="1.1" xmlns="http://www.w3.org/2000/svg"><defs><linearGradient id="sw-gradient-0" x1="0" x2="0" y1="1" y2="0"><stop stop-color="rgba(243, 106, 62, 1)" offset="0%"/><stop stop-color="rgba(255, 179, 11, 1)" offset="100%"/></linearGradient></defs><path style="transform:translate(0, 0px); opacity:1" fill="url(#sw-gradient-0)" d="M0,49L80,114.3C160,180,320,310,480,351.2C640,392,800,343,960,277.7C1120,212,1280,131,1440,147C1600,163,1760,278,1920,285.8C2080,294,2240,196,2400,196C2560,196,2720,294,2880,294C3040,294,3200,196,3360,163.3C3520,131,3680,163,3840,179.7C4000,196,4160,196,4320,204.2C4480,212,4640,229,4800,204.2C4960,180,5120,114,5280,122.5C5440,131,5600,212,5760,236.8C5920,261,6080,229,6240,245C6400,261,6560,327,6720,326.7C6880,327,7040,261,7200,196C7360,131,7520,65,7680,40.8C7840,16,8000,33,8160,49C8320,65,8480,82,8640,106.2C8800,131,8960,163,9120,212.3C9280,261,9440,327,9600,302.2C9760,278,9920,163,10080,171.5C10240,180,10400,310,10560,302.2C10720,294,10880,147,11040,89.8C11200,33,11360,65,11440,81.7L11520,98L11520,490L11440,490C11360,490,11200,490,11040,490C10880,490,10720,490,10560,490C10400,490,10240,490,10080,490C9920,490,9760,490,9600,490C9440,490,9280,490,9120,490C8960,490,8800,490,8640,490C8480,490,8320,490,8160,490C8000,490,7840,490,7680,490C7520,490,7360,490,7200,490C7040,490,6880,490,6720,490C6560,490,6400,490,6240,490C6080,490,5920,490,5760,490C5600,490,5440,490,5280,490C5120,490,4960,490,4800,490C4640,490,4480,490,4320,490C4160,490,4000,490,3840,490C3680,490,3520,490,3360,490C3200,490,3040,490,2880,490C2720,490,2560,490,2400,490C2240,490,2080,490,1920,490C1760,490,1600,490,1440,490C1280,490,1120,490,960,490C800,490,640,490,480,490C320,490,160,490,80,490L0,490Z"/></svg>